<svg class="text-brand" width="28" height="28" xmlns="http://www.w3.org/2000/svg" fill="currentColor" viewBox="0 0 28.492 28.494"><path id="language" d="M23.352,27.076c-1.173-1.181-2.359-2.35-3.524-3.536a1.06,1.06,0,0,0-.838-.357c-1.915.017-3.83.009-5.745.008-.916,0-1.169-.255-1.171-1.186,0-1.59,0-3.18,0-4.852-.286,0-.528,0-.771,0-.331,0-.673-.021-1.015-.044a5.091,5.091,0,0,0-2.224.16c-.918.375-1.563,1.422-2.324,2.176q-.819.813-1.632,1.632a.854.854,0,0,1-1,.313.886.886,0,0,1-.533-.953c.008-1.071,0-2.141,0-3.286-.552,0-1.064.009-1.576,0-.719-.015-1-.3-1-1.022Q0,8.558,0,.987C0,.293.287,0,.971,0Q7.709,0,14.447,0c.671,0,.964.294.969.994.011,1.432,0,2.863,0,4.3v.733h10.9c.926,0,1.175.249,1.175,1.172V22.07c0,.858-.259,1.117-1.116,1.12-.463,0-.926,0-1.464,0,0,1.124-.007,2.177,0,3.23.005.442-.073.825-.53,1.012a.777.777,0,0,1-.295.062A1.092,1.092,0,0,1,23.352,27.076Zm-3.263-5.35c.86.351,1.476,1.306,2.19,2.005.311.3.6.631.9.947A14.163,14.163,0,0,0,23.3,22.52c.006-.659.284-.932.953-.938.53-.005,1.059,0,1.6,0V7.666H15.42v.655q0,3.864,0,7.729c0,.834-.264,1.089-1.094,1.1-.192,0-.386,0-.6,0v4.428c1.141,0,2.246-.009,3.351,0,.293,0,.6-.014.9-.03.278-.015.556-.031.828-.031A3.4,3.4,0,0,1,20.088,21.726ZM1.645,15.482a.552.552,0,0,0,.135.046c.465.006.931.007,1.4.013.765.011,1.012.264,1.015,1.042,0,.666,0,1.333,0,2.152.988-.994,1.868-1.857,2.72-2.747A1.373,1.373,0,0,1,8,15.534c1.736.016,3.472.007,5.209.005.187,0,.375-.02.572-.032V1.635H1.645Zm15.422,3.362c-.443-.081-.673-.377-.649-.986.157-.622.351-1.38.541-2.14.324-1.3.638-2.594.973-3.887a1.9,1.9,0,0,1,3.7-.035c.527,2.016,1.025,4.039,1.523,6.062a.8.8,0,0,1-1.541.457c-.013-.033-.015-.07-.026-.1-.332-1.06-.332-1.06-1.423-1.06-.5,0-1,.018-1.5-.006a.421.421,0,0,0-.512.4,4.659,4.659,0,0,1-.206.774.737.737,0,0,1-.708.545A.95.95,0,0,1,17.068,18.844ZM19.765,12a.552.552,0,0,0-.3.316c-.14.477-.241.964-.36,1.448-.141.575-.284,1.151-.431,1.741H20.9c-.284-1.131-.548-2.214-.835-3.289a.419.419,0,0,0-.283-.22A.054.054,0,0,0,19.765,12ZM3.5,13.143c-.176-.457.08-.835.661-1.094.808-.36,1.6-.762,2.416-1.154-.42-.62-.776-1.132-1.118-1.653-.393-.6-.355-1.067.1-1.349.435-.274.854-.12,1.238.45.287.427.578.851.9,1.332a7.629,7.629,0,0,0,1.586-2.9H8.437c-1.341,0-2.683,0-4.024,0-.584,0-.954-.3-.967-.771-.014-.488.374-.829.976-.836.8-.009,1.6,0,2.435,0,.1-.689-.209-1.687.853-1.686s.707.982.822,1.686c.82,0,1.635,0,2.45,0,.476,0,.85.159.947.676a.784.784,0,0,1-.662.937.626.626,0,0,0-.394.317A9.985,9.985,0,0,1,8.9,10.8a7.8,7.8,0,0,0,2.269,1.251,1.326,1.326,0,0,1,.726.61c.257.666-.382,1.231-1.117.933-.918-.371-1.777-.888-2.659-1.349a1.7,1.7,0,0,1-.285-.2c-1.116.547-2.107,1.07-3.13,1.519a1.242,1.242,0,0,1-.495.118A.736.736,0,0,1,3.5,13.143Z" transform="translate(0.499 0.5)" fill="#ec972e" stroke="rgba(0,0,0,0)" stroke-width="1"></path></svg>