<svg class="w-[18px]" xmlns="http://www.w3.org/2000/svg" viewBox="0 0 18 18"><path id="verication-check" d="M9,18H9a1.088,1.088,0,0,1-.4-.079,2.083,2.083,0,0,1-.429-.236c-.183-.127-.4-.275-.586-.437a1.772,1.772,0,0,0-1.191-.427,2.677,2.677,0,0,0-.409.033c-.228.035-.472.062-.745.082-.044,0-.087,0-.129,0a1.139,1.139,0,0,1-1.077-.652,9.863,9.863,0,0,1-.405-.905A1.781,1.781,0,0,0,2.6,14.36a8.931,8.931,0,0,1-.9-.406,1.308,1.308,0,0,1-.291-.209,1,1,0,0,1-.2-.274,1.616,1.616,0,0,1-.134-.811c.007-.067.016-.156.025-.25h0c.02-.2.045-.445.071-.694a1.628,1.628,0,0,0-.35-1.209c-.2-.258-.39-.523-.572-.788a1.176,1.176,0,0,1,0-1.432l0-.007c.158-.232.321-.471.5-.688a1.9,1.9,0,0,0,.394-1.6L1.128,5.9v0a3.835,3.835,0,0,1-.058-.971,1.057,1.057,0,0,1,.479-.788,3.287,3.287,0,0,1,.565-.292l.119-.053c.143-.064.29-.126.431-.186h0L2.7,3.594a1.645,1.645,0,0,0,.892-.89l.1-.226h0c.091-.213.185-.434.288-.646a1.149,1.149,0,0,1,1.134-.771,2.431,2.431,0,0,1,.259.015c.251.027.507.052.755.076h0l.195.019c.055.005.111.008.165.008A1.6,1.6,0,0,0,7.459.84L7.486.819C7.7.656,7.927.487,8.153.329A1.466,1.466,0,0,1,9,0a1.47,1.47,0,0,1,.841.326l.016.011c.2.137.4.279.587.435a1.728,1.728,0,0,0,1.16.4,2.848,2.848,0,0,0,.39-.028l.123-.017h0a5.276,5.276,0,0,1,.731-.068c.065,0,.128,0,.189.007a1.083,1.083,0,0,1,.887.577,4.44,4.44,0,0,1,.367.8,1.973,1.973,0,0,0,1.28,1.271,4.968,4.968,0,0,1,.683.305,1.64,1.64,0,0,1,.346.238,1.04,1.04,0,0,1,.223.287,1.061,1.061,0,0,1,.109.348,1.719,1.719,0,0,1,0,.421c-.02.189-.039.382-.058.568-.014.137-.028.279-.043.419a1.607,1.607,0,0,0,.342,1.175c.165.216.327.434.479.648h0a2.247,2.247,0,0,1,.261.456,1.05,1.05,0,0,1,0,.836,2.221,2.221,0,0,1-.259.454l-.06.084h0c-.112.158-.228.321-.355.47a1.852,1.852,0,0,0-.383,1.584c.035.235.062.479.081.745a1.145,1.145,0,0,1-.665,1.212c-.327.16-.628.3-.92.416a1.7,1.7,0,0,0-.967.963c-.11.266-.24.575-.39.87a1.387,1.387,0,0,1-.455.553,1.134,1.134,0,0,1-.644.172,2.152,2.152,0,0,1-.23-.013l-.61-.062h0l-.359-.036a1.745,1.745,0,0,0-.178-.009,1.612,1.612,0,0,0-1,.351c-.266.2-.486.366-.694.511a2.074,2.074,0,0,1-.429.238A1.085,1.085,0,0,1,9,18ZM5.719,7.679a1.1,1.1,0,0,0-.406.084.952.952,0,0,0-.6.913.988.988,0,0,0,.324.732l1.718,1.717.642.642a1.11,1.11,0,0,0,.772.38,1.123,1.123,0,0,0,.78-.386l3.937-3.937.015-.015,0,0a1.909,1.909,0,0,0,.172-.187.988.988,0,0,0,.155-.916.969.969,0,0,0-.673-.632,1.053,1.053,0,0,0-.278-.039,1.027,1.027,0,0,0-.743.345c-.39.391-.787.788-1.17,1.172C9.7,8.215,9.01,8.9,8.335,9.588c-.069.07-.121.1-.168.1s-.1-.031-.163-.108c-.105-.121-.223-.235-.337-.345h0c-.05-.048-.1-.1-.15-.147L7.2,8.773l0,0c-.26-.261-.528-.531-.8-.791A.965.965,0,0,0,5.719,7.679Z" transform="translate(0.003)" fill="#00b9ff"></path></svg>